 <svg version="1.0" xmlns="http://www.w3.org/2000/svg" width="700.000000pt" height="422.000000pt" viewBox="0 0 700.000000 422.000000" preserveAspectRatio="xMidYMid meet">
<metadata>
Created by potrace 1.12, written by Peter Selinger 2001-2015
</metadata>
<g transform="translate(0.000000,422.000000) scale(0.100000,-0.100000)" fill="#000000" stroke="none">
<path d="M4743 2848 c-4 -7 -7 -278 -5 -603 2 -514 4 -590 17 -593 8 -2 15
-10 15 -19 0 -12 17 -14 115 -11 63 1 118 8 123 13 6 6 12 254 14 599 5 566 4
589 -14 593 -10 3 -18 12 -18 19 0 19 -235 20 -247 2z m215 -4 l23 -7 -3 -581
-3 -581 -111 -3 -112 -3 2 223 c0 123 -1 365 -3 538 -2 173 -1 339 3 368 l8
52 86 0 c48 0 97 -3 110 -6z"></path>
<path d="M888 2823 l-87 -4 -12 -42 c-6 -23 -26 -98 -45 -167 -49 -177 -194
-881 -194 -939 0 -6 7 -11 15 -11 8 0 15 -6 15 -14 0 -13 96 -26 201 -26 72 0
71 -1 119 218 13 58 21 66 54 58 20 -5 27 -21 52 -113 39 -151 46 -156 191
-161 97 -4 114 -2 119 12 8 20 24 21 24 1 0 -12 18 -15 103 -15 56 0 113 3
126 7 l24 6 -6 236 c-6 289 -7 287 89 306 27 5 157 -15 200 -32 11 -4 14 5 14
42 l0 46 43 -3 42 -3 6 -155 c10 -249 29 -306 118 -367 72 -49 215 -83 347
-83 50 0 55 2 65 28 6 15 9 65 6 117 -3 80 -7 94 -29 118 -22 24 -33 27 -88
27 -34 0 -80 5 -102 12 l-39 11 3 150 3 150 88 -1 c48 0 103 -1 122 -1 l35 -1
0 -124 c0 -248 28 -341 129 -423 75 -62 133 -76 294 -71 218 6 253 38 277 258
22 198 9 438 -28 502 -22 37 -94 95 -149 120 -60 26 -225 36 -315 18 -108 -21
-163 -59 -184 -129 l-11 -36 -7 52 c-5 35 -15 58 -33 75 -22 21 -33 23 -125
23 l-101 0 1 128 c2 121 0 129 -18 134 -11 3 -20 11 -20 18 0 9 -30 15 -105
20 -57 4 -111 5 -120 1 -12 -4 -15 -30 -15 -156 l0 -150 -51 0 c-89 0 -89 0
-89 -161 0 -131 -1 -141 -17 -134 -63 26 -177 33 -230 15 -17 -6 -35 -21 -42
-33 -7 -14 -12 -105 -14 -262 l-2 -240 -65 -5 c-36 -3 -84 -3 -107 -1 l-43 3
0 403 0 402 90 2 c50 1 94 2 98 2 21 3 31 -3 34 -23 2 -14 9 -22 18 -19 8 2
53 11 100 21 47 10 71 19 54 19 -17 1 -56 -4 -86 -10 -51 -10 -57 -10 -76 9
-18 18 -29 20 -128 15 -60 -3 -111 -8 -114 -10 -3 -3 -4 -181 -3 -396 1 -216
0 -387 -3 -382 -6 14 -38 160 -78 355 -19 91 -48 219 -65 285 -16 66 -46 191
-66 277 -37 164 -60 210 -101 206 -11 -1 -58 -4 -106 -5z m186 -265 c32 -139
74 -323 92 -408 35 -163 40 -188 79 -364 13 -61 22 -112 19 -115 -3 -4 -48 -6
-100 -6 -69 1 -98 5 -109 15 -7 8 -28 66 -45 129 -17 63 -33 118 -36 123 -3 4
-27 8 -54 8 -56 0 -51 9 -80 -133 -29 -145 -20 -137 -155 -137 -106 0 -115 1
-115 19 0 24 48 286 96 521 48 234 129 558 149 590 3 6 47 10 103 10 l97 0 59
-252z m1083 222 l52 0 3 -152 3 -153 119 4 c93 3 120 1 127 -10 10 -17 11 -78
3 -142 l-7 -46 -121 -3 -121 -3 -3 -125 c-2 -69 0 -145 3 -168 6 -40 10 -46
51 -63 24 -11 79 -23 122 -27 l77 -7 8 -55 c4 -30 4 -79 1 -109 l-6 -54 -116
6 c-205 11 -308 56 -332 148 -13 48 -30 251 -30 367 l0 92 -50 0 -50 0 -2 80
c-1 44 -2 87 -2 97 -1 13 10 16 54 17 l55 1 -4 116 c-2 64 0 135 4 159 l7 43
52 -7 c28 -3 75 -6 103 -6z m857 -294 c61 -19 114 -60 132 -103 25 -58 35
-222 24 -395 -11 -185 -20 -226 -60 -272 -43 -48 -99 -61 -254 -59 -119 2
-134 4 -185 30 -105 53 -137 135 -145 373 -5 149 4 251 30 330 16 50 48 76
119 97 59 16 282 16 339 -1z"></path>
<path d="M905 2440 c-15 -84 -42 -296 -38 -302 6 -10 85 -10 100 0 10 6 8 37
-7 142 -11 74 -20 140 -20 146 0 5 -6 19 -14 29 -13 19 -15 18 -21 -15z m45
-162 c0 -13 3 -47 6 -75 6 -49 5 -53 -15 -53 -23 0 -26 19 -15 104 7 47 24 64
24 24z"></path>
<path d="M2805 2246 c-52 -23 -58 -38 -63 -161 -3 -63 -2 -125 2 -139 8 -33
53 -56 108 -56 85 0 118 51 118 182 0 101 -24 160 -72 177 -39 14 -56 13 -93
-3z m131 -57 c16 -18 19 -36 17 -126 -2 -118 -13 -147 -63 -158 -18 -4 -47 -4
-66 -1 l-34 7 0 122 c0 67 4 127 8 133 31 45 107 58 138 23z"></path>
<path d="M3435 2510 c-112 -24 -149 -53 -175 -137 -17 -55 -20 -93 -20 -252 0
-274 18 -341 111 -425 77 -70 114 -81 279 -81 80 0 157 3 172 8 48 13 96 64
113 120 38 127 44 470 10 583 -18 61 -88 134 -160 165 -41 18 -72 23 -170 25
-66 2 -138 -1 -160 -6z m308 -24 c121 -44 148 -93 155 -291 5 -172 -12 -393
-34 -441 -36 -76 -99 -99 -271 -97 -146 2 -192 13 -242 59 -79 71 -106 191
-98 439 8 244 29 296 137 330 60 18 301 19 353 1z"></path>
<path d="M3543 2253 c-12 -2 -34 -18 -48 -34 -24 -29 -25 -36 -25 -159 0 -127
0 -129 26 -149 33 -26 120 -29 150 -5 19 15 19 16 -1 9 -42 -15 -93 -17 -115
-5 -22 12 -22 16 -18 131 5 137 15 156 85 166 33 4 45 1 63 -17 21 -21 22 -29
18 -135 -3 -123 8 -132 18 -13 13 154 -45 234 -153 211z"></path>
<path d="M5278 2506 c-111 -32 -178 -94 -204 -187 -8 -30 -17 -111 -19 -184
l-4 -130 9 111 c9 123 26 216 46 255 46 91 201 148 350 129 38 -5 78 -11 89
-15 11 -3 4 2 -15 11 -47 22 -191 28 -252 10z"></path>
<path d="M4436 2493 c-18 -3 -30 -12 -33 -24 -4 -14 -11 -18 -22 -13 -55 23
-90 33 -122 34 -42 0 -135 -26 -145 -41 -4 -8 -1 -8 13 -1 10 6 46 15 81 22
75 13 134 1 174 -37 l27 -25 3 33 3 34 110 0 110 0 0 -495 c-1 -447 -2 -498
-18 -527 -43 -81 -152 -119 -306 -108 -122 8 -158 18 -210 56 -50 36 -94 120
-89 171 l3 33 97 3 96 3 19 -38 c22 -45 62 -67 107 -59 52 10 70 37 74 117 l4
69 -38 -16 c-57 -24 -236 -17 -284 12 -81 47 -114 143 -113 323 1 68 3 149 7
180 5 54 5 55 -6 16 -6 -22 -11 -110 -12 -195 0 -140 2 -161 23 -213 29 -72
70 -121 130 -152 l46 -24 -51 -1 c-28 0 -66 -3 -83 -6 -30 -6 -31 -9 -31 -56
0 -59 17 -103 60 -152 72 -82 171 -116 340 -116 89 0 113 4 155 24 59 27 100
71 115 124 13 49 25 700 15 875 -5 107 -10 137 -21 137 -8 0 -14 6 -14 14 0
21 -122 32 -214 19z m-36 -886 c0 -12 -7 -32 -15 -44 -31 -44 -115 -47 -115
-4 0 11 -9 25 -20 31 -36 19 -21 29 48 33 37 2 75 4 85 5 12 1 17 -5 17 -21z"></path>
<path d="M5632 2435 c52 -59 81 -140 86 -245 4 -95 4 -97 -19 -103 -13 -4
-113 -10 -222 -14 l-197 -6 5 -34 c3 -18 8 -50 11 -70 8 -55 40 -100 78 -113
66 -22 120 16 132 92 l7 38 100 0 100 0 -7 -95 c-3 -52 -11 -107 -17 -122 -17
-45 -60 -82 -113 -98 -64 -19 -266 -19 -319 -1 -83 30 -137 99 -173 223 -12
43 -13 44 -8 9 15 -106 114 -239 203 -273 36 -14 74 -18 181 -17 118 0 141 3
180 22 75 36 108 106 117 245 5 76 4 87 -11 87 -9 0 -16 6 -16 14 0 19 -62 28
-160 24 -71 -3 -75 -5 -78 -28 -9 -79 -33 -110 -87 -110 -47 0 -70 35 -70 109
l0 56 185 6 c102 4 197 7 212 8 23 1 27 6 33 49 8 63 -10 173 -40 236 -13 28
-46 71 -72 96 -26 25 -36 32 -21 15z"></path>
<path d="M4069 2413 l-24 -28 28 24 c25 23 32 31 24 31 -2 0 -14 -12 -28 -27z"></path>
<path d="M5341 2326 c-45 -25 -69 -107 -35 -120 9 -3 65 -6 125 -6 l109 0 0
25 c0 39 -27 83 -60 100 -36 18 -107 19 -139 1z m165 -48 c6 -7 15 -23 19 -35
6 -23 5 -23 -89 -23 -53 0 -96 3 -96 6 0 18 26 48 53 60 36 16 94 12 113 -8z"></path>
<path d="M4226 2240 c-90 -80 -86 -304 7 -360 47 -29 93 -34 135 -13 44 22 50
39 51 160 2 177 -29 243 -113 243 -36 0 -52 -6 -80 -30z m152 -18 c16 -11 35
-210 27 -275 -8 -54 -32 -77 -82 -77 -89 0 -116 42 -111 170 3 75 7 92 31 129
15 23 38 46 50 51 28 11 68 12 85 2z"></path>
<path d="M5062 1970 c0 -19 2 -27 5 -17 2 9 2 25 0 35 -3 9 -5 1 -5 -18z"></path>
</g>
</svg>